<svg xmlns="http://www.w3.org/2000/svg" viewBox="0 0 480 1200" fill="none">
  <defs>
    <linearGradient id="navyRoute" x1="448" y1="36" x2="62" y2="1100" gradientUnits="userSpaceOnUse">
      <stop stop-color="#0A2240" stop-opacity="0.12"/>
      <stop offset="0.48" stop-color="#0A2240" stop-opacity="0.035"/>
      <stop offset="1" stop-color="#0A2240" stop-opacity="0.08"/>
    </linearGradient>
    <linearGradient id="goldRoute" x1="24" y1="118" x2="452" y2="986" gradientUnits="userSpaceOnUse">
      <stop stop-color="#B68A45" stop-opacity="0.16"/>
      <stop offset="0.5" stop-color="#B68A45" stop-opacity="0.04"/>
      <stop offset="1" stop-color="#B68A45" stop-opacity="0.11"/>
    </linearGradient>
    <radialGradient id="blueWash" cx="0" cy="0" r="1" gradientTransform="translate(424 190) rotate(126) scale(310 230)" gradientUnits="userSpaceOnUse">
      <stop stop-color="#DFE6EC" stop-opacity="0.7"/>
      <stop offset="1" stop-color="#DFE6EC" stop-opacity="0"/>
    </radialGradient>
  </defs>
  <ellipse cx="424" cy="190" rx="310" ry="230" fill="url(#blueWash)"/>
  <path d="M462 18C360 98 391 188 286 262C194 327 265 416 176 494C89 571 129 670 47 753C-11 811 43 934 144 1005C204 1047 208 1129 150 1200" stroke="url(#navyRoute)" stroke-width="1.4"/>
  <path d="M-20 112C75 171 46 279 150 343C254 407 210 510 322 573C420 628 380 741 490 805" stroke="url(#goldRoute)" stroke-width="1.25"/>
  <path d="M-34 384C64 438 27 528 119 594C211 660 171 746 266 816C351 878 330 970 498 1044" stroke="#FFFFFF" stroke-opacity="0.42" stroke-width="1"/>
  <g fill="#FFFDF9" stroke-width="1.5">
    <circle cx="287" cy="261" r="4" stroke="#0A2240" stroke-opacity="0.18"/>
    <circle cx="150" cy="343" r="4" stroke="#B68A45" stroke-opacity="0.22"/>
    <circle cx="176" cy="494" r="3" stroke="#0A2240" stroke-opacity="0.16"/>
    <circle cx="322" cy="573" r="4" stroke="#B68A45" stroke-opacity="0.2"/>
    <circle cx="47" cy="753" r="4" stroke="#0A2240" stroke-opacity="0.18"/>
    <circle cx="266" cy="816" r="3" stroke="#B68A45" stroke-opacity="0.18"/>
  </g>
</svg>
